# xmcd
#
# Track frame offsets: 
#        150
#        15146
#        30496
#        45181
#        63453
#        79438
#        96072
#        114434
#        129558
#        144443
#        158853
#        174724
#        191301
#        204564
#        218883
#        236900
#
# Disc length: 3352 seconds
#
# Revision: 0
# Processed by: cddbd v1.5.2PL0 Copyright (c) Steve Scherf et al.
# Submitted via: ExactAudioCopy v1.0b1
#
DISCID=d10d1610
DTITLE=Various Artist - CD-X Vol. 524 May 23 2011
DYEAR=2011
DGENRE=Country
TTITLE0=The Lunabelles - A Place To Shine (Single Edit)
TTITLE1=Big and Rich - Fake ID (w Gretchen Wilson)
TTITLE2=Jason Jones - Ferris Wheel
TTITLE3=Josh Kelley - Gone Like That
TTITLE4=JT Hodges - Hunt You Down
TTITLE5=Lady Antebellum - Just A Kiss
TTITLE6=Sugarland - Tonight (Radio Edit)
TTITLE7=Brad Wolf - Love Oughta Be Perfect (w Pete Rose Intro)
TTITLE8=Marlee Scott - Beautiful Maybe
TTITLE9=Katie Smith - Better Without You
TTITLE10=Jimmy White - Forever And A Day
TTITLE11=Bobby Dean - Rebound
TTITLE12=Joel Warren - Straight Up Country (w Jason Allen)
TTITLE13=Jason Sturgeon - The Cover
TTITLE14=Jimmy LeHoux - Twenty Toes In The Sand
TTITLE15=Darren Warren - Cowboy Up And Party Down (Dance Mix)
EXTD=
EXTT0=
EXTT1=
EXTT2=
EXTT3=
EXTT4=
EXTT5=
EXTT6=
EXTT7=
EXTT8=
EXTT9=
EXTT10=
EXTT11=
EXTT12=
EXTT13=
EXTT14=
EXTT15=
PLAYORDER=
